<svg width="138" height="138" viewBox="0 0 138 138" fill="none" xmlns="http://www.w3.org/2000/svg">
<g clip-path="url(#clip0_2_869)">
<rect width="138" height="138" fill="#4B6B92"/>
<rect width="138" height="138" fill="url(#paint0_linear_2_869)" fill-opacity="0.15" style="mix-blend-mode:multiply"/>
<path style="mix-blend-mode:multiply" fill-rule="evenodd" clip-rule="evenodd" d="M0 130V132C0 135.314 2.68629 138 6 138H132C135.314 138 138 135.314 138 132V130C138 133.314 135.314 136 132 136H6C2.68629 136 0 133.314 0 130ZM6 0C3.10051 0 0.681376 2.05669 0.121899 4.79079C0.681379 2.0567 3.10051 7.62939e-06 6 7.62939e-06L132 0C135.314 7.62939e-06 138 2.6863 138 6C138 2.68629 135.314 0 132 0H6Z" fill="black" fill-opacity="0.3"/>
<g style="mix-blend-mode:screen">
<path fill-rule="evenodd" clip-rule="evenodd" d="M137.936 132.881C137.51 135.777 135.014 138 132 138L5.99998 138L132 138C135.014 138 137.51 135.777 137.936 132.881ZM-4.13563e-06 7.99996C-3.8521e-06 4.68625 2.68628 1.99996 6 1.99996L132 1.99997C135.31 1.99997 137.995 4.68103 138 7.9903L138 6C138 2.68629 135.314 -2.39948e-07 132 -5.3594e-07L6 -1.17907e-05C2.68629 -1.20867e-05 -3.68098e-06 2.68628 -3.96451e-06 5.99999L-4.13563e-06 7.99996Z" fill="white" fill-opacity="0.2" style="mix-blend-mode:multiply"/>
</g>
<path fill-rule="evenodd" clip-rule="evenodd" d="M39.3584 121.417V117H28.0564H23.5897L23.5895 117V121.417H23.5897V125.165H23.5895V129.581H23.5897V133.396H23.5895V137.813H39.3584V133.396H28.0564V129.581L39.3584 129.582V125.165L28.0564 125.165V121.417L39.3584 121.417ZM50.8711 117H46.4044V133.396V137.813L62.1732 137.813V133.396H50.8711V117ZM72.2647 121.417V125.232L82.3761 125.232V129.648L72.2647 129.648V137.813H67.798V129.648V125.232V121.417V117V117L83.5669 117V121.417L72.2647 121.417ZM4.35914 117C0.847083 117 -2 119.815 -2 123.288C-2 126.761 0.847083 129.576 4.35914 129.576H11.4314C12.4981 129.576 13.3628 130.431 13.3628 131.486C13.3628 132.541 12.4981 133.396 11.4314 133.396H0.233356L0.233356 137.813L11.4314 137.813C14.965 137.813 17.8295 134.98 17.8295 131.486C17.8295 127.992 14.965 125.16 11.4314 125.16H4.35914C3.31398 125.16 2.46671 124.322 2.46671 123.288C2.46671 122.255 3.31398 121.417 4.35914 121.417H15.5961V117H4.35914Z" fill="white" fill-opacity="0.5"/>
<path fill-rule="evenodd" clip-rule="evenodd" d="M138 117.052H89.8496V138H138V117.052ZM98.0063 128.462V131.198H105.178V133.393H95.3405V121.572H104.962V123.767H98.0063V126.334H104.25V128.462H98.0063ZM108.979 121.572V133.393H111.685V130.1H114.04C114.082 130.1 114.125 130.1 114.167 130.099L116.411 133.393H119.334L116.722 129.603L116.745 129.593C117.502 129.256 118.087 128.771 118.499 128.141C118.911 127.499 119.117 126.739 119.117 125.861C119.117 124.972 118.911 124.206 118.499 123.564C118.087 122.923 117.502 122.433 116.745 122.095C115.988 121.746 115.086 121.572 114.04 121.572H108.979ZM111.685 127.921H113.889C114.724 127.921 115.348 127.741 115.76 127.381C116.172 127.009 116.378 126.503 116.378 125.861C116.378 125.208 116.172 124.701 115.76 124.341C115.348 123.981 114.724 123.801 113.889 123.801H111.685V127.921ZM123.135 133.393V121.572H128.132C129.165 121.572 130.056 121.746 130.803 122.095C131.551 122.433 132.128 122.923 132.535 123.564C132.942 124.206 133.145 124.972 133.145 125.861C133.145 126.739 132.942 127.499 132.535 128.141C132.128 128.783 131.551 129.278 130.803 129.627C130.056 129.965 129.165 130.134 128.132 130.134H125.807V133.393H123.135ZM127.983 127.904H125.807V123.801H127.983C128.808 123.801 129.424 123.981 129.83 124.341C130.237 124.701 130.44 125.208 130.44 125.861C130.44 126.503 130.237 127.004 129.83 127.364C129.424 127.724 128.808 127.904 127.983 127.904Z" fill="white" fill-opacity="0.5"/>
<rect x="-1" width="26" height="12" fill="#005BBB"/>
<rect x="-1" y="12" width="26" height="12" fill="#FFD500"/>
<path d="M-33 111L67.7857 26L102.5 66.5L130.392 68.4317L171 147L116.183 141.376L93.5728 147L-1 152.5L-33 111Z" fill="url(#paint1_linear_2_869)"/>
<g filter="url(#filter0_d_2_869)">
<path d="M85.819 28L82.0248 36.5065C81.2787 36.4164 80.5282 36.3681 79.7767 36.3616C77.3304 36.3463 74.9528 36.7815 72.7295 37.588L67.3521 30.0251L57.1687 37.4939L62.7341 45.3113C61.018 47.7958 59.8726 50.6319 59.3805 53.6149L49.5 54.7035L50.7362 67.304L61.2522 66.1426C62.4295 68.5154 64.046 70.6414 66.0153 72.4069L61.527 82.4815L72.9466 87.6132L77.4567 77.4947C80.1525 77.7832 82.7947 77.5244 85.2625 76.7979L91.7672 85.7471L99.1035 80.3618L101.799 85.0434C98.3981 87.6546 95.3576 90.708 92.7573 94.1234L81.3735 87.54L75.4253 98.3915L86.5559 104.88C84.8937 108.877 83.7779 113.082 83.2386 117.379H70.2941V129.856H83.2968C83.6764 132.62 84.2979 135.345 85.1541 138H124.313C118.782 135.501 114.932 129.92 114.932 123.433C114.932 114.615 122.045 107.464 130.826 107.464C139.606 107.464 146.726 114.615 146.726 123.433C146.726 129.92 142.871 135.501 137.338 138H158.5V69.3579L155.797 67.87L149.415 79.026C145.458 77.3245 141.287 76.1742 137.019 75.6071V62.7093H124.595V75.5931C120.362 76.1452 116.308 77.2615 112.496 78.8518L106.223 67.8702L97.8964 72.5736L95.757 69.5611C97.4314 67.3713 98.6505 64.8659 99.3419 62.1936L109.62 61.0688L108.384 48.4683L98.6122 49.4338C97.4768 46.5068 95.6922 43.878 93.3938 41.7472L97.2386 33.1315L85.819 28ZM79.4948 47.5685C84.8837 47.5127 89.4261 51.7091 89.7582 57.1711C90.1005 62.8094 85.8255 67.6566 80.2108 68.0005C74.5957 68.345 69.7695 64.058 69.427 58.4195C69.0847 52.7815 73.3526 47.9345 78.9674 47.5903C79.1432 47.5796 79.3213 47.5703 79.4948 47.5685Z" fill="white"/>
</g>
</g>
<defs>
<filter id="filter0_d_2_869" x="49.5" y="28" width="109" height="112" filterUnits="userSpaceOnUse" color-interpolation-filters="sRGB">
<feFlood flood-opacity="0" result="BackgroundImageFix"/>
<feColorMatrix in="SourceAlpha" type="matrix" values="0 0 0 0 0 0 0 0 0 0 0 0 0 0 0 0 0 0 127 0" result="hardAlpha"/>
<feOffset dy="2"/>
<feComposite in2="hardAlpha" operator="out"/>
<feColorMatrix type="matrix" values="0 0 0 0 0 0 0 0 0 0 0 0 0 0 0 0 0 0 0.5 0"/>
<feBlend mode="normal" in2="BackgroundImageFix" result="effect1_dropShadow_2_869"/>
<feBlend mode="normal" in="SourceGraphic" in2="effect1_dropShadow_2_869" result="shape"/>
</filter>
<linearGradient id="paint0_linear_2_869" x1="-2.57045e-07" y1="138" x2="140.965" y2="3.09775" gradientUnits="userSpaceOnUse">
<stop/>
<stop offset="1" stop-opacity="0"/>
</linearGradient>
<linearGradient id="paint1_linear_2_869" x1="30.2433" y1="147.511" x2="105.631" y2="63.8363" gradientUnits="userSpaceOnUse">
<stop stop-opacity="0.5"/>
<stop offset="1" stop-opacity="0"/>
</linearGradient>
<clipPath id="clip0_2_869">
<rect width="138" height="138" rx="6" fill="white"/>
</clipPath>
</defs>
</svg>
