<svg width="199" height="108" viewBox="0 0 199 108" fill="none" xmlns="http://www.w3.org/2000/svg">
<path fill-rule="evenodd" clip-rule="evenodd" d="M199 64.8287H99.9438V107.611H199V64.8287ZM138.998 74.0598V98.2025H144.564V91.477H149.409C149.497 91.477 149.584 91.4765 149.671 91.4753L154.288 98.2025H160.301L154.928 90.4631L154.975 90.4423C156.533 89.7526 157.735 88.7638 158.583 87.4762C159.43 86.1656 159.854 84.6136 159.854 82.8201C159.854 81.0037 159.43 79.4402 158.583 78.1296C157.735 76.8189 156.533 75.8187 154.975 75.129C153.418 74.4162 151.562 74.0598 149.409 74.0598H138.998ZM144.564 87.0279H149.1C150.818 87.0279 152.1 86.66 152.948 85.9242C153.796 85.1654 154.219 84.1307 154.219 82.8201C154.219 81.4865 153.796 80.4519 152.948 79.7161C152.1 78.9803 150.818 78.6124 149.1 78.6124H144.564V87.0279ZM115.369 88.1315V93.7189H130.122V98.2025H109.885V74.0598H129.68V78.5434H115.369V83.7859H128.215V88.1315H115.369ZM169.354 98.2025V74.0598H179.633C181.759 74.0598 183.591 74.4162 185.129 75.129C186.667 75.8187 187.855 76.8189 188.691 78.1296C189.528 79.4402 189.947 81.0037 189.947 82.8201C189.947 84.6136 189.528 86.1656 188.691 87.4762C187.855 88.7868 186.667 89.7985 185.129 90.5113C183.591 91.2011 181.759 91.546 179.633 91.546H174.85V98.2025H169.354ZM179.328 86.9934H174.85V78.6124H179.328C181.024 78.6124 182.291 78.9803 183.128 79.7161C183.965 80.4519 184.383 81.4865 184.383 82.8201C184.383 84.1307 183.965 85.1539 183.128 85.8897C182.291 86.6255 181.024 86.9934 179.328 86.9934Z" fill="#00AEB7"/>
<path fill-rule="evenodd" clip-rule="evenodd" d="M157.46 0.388944L198.822 0.388942L198.822 12.1053L169.177 12.1053V22.2239L195.45 22.2239V33.9402H169.177V55.5977H157.46V33.9402V22.2239V12.1053V0.388944ZM70.2979 22.0464V12.1053L99.9438 12.1053V0.388947H70.2979H58.5816V55.5977H70.2979L99.9438 55.5977V43.8814H70.2979V33.7627L99.9438 33.7627V22.0464L70.2979 22.0464ZM121.601 0.388947H109.885V43.8814V55.5977H121.601H151.247V43.8814L121.601 43.8814V0.388947ZM16.6802 0.388947C7.46799 0.388947 0 7.85694 0 17.0692C0 26.2814 7.46799 33.7494 16.6802 33.7494H35.2311C38.0289 33.7494 40.2971 36.0175 40.2971 38.8154C40.2971 41.6132 38.0289 43.8814 35.2311 43.8814H5.85816L5.85816 55.5977L35.2311 55.5977C44.4997 55.5977 52.0134 48.084 52.0134 38.8154C52.0134 29.5468 44.4997 22.0331 35.2311 22.0331H16.6802C13.9387 22.0331 11.7163 19.8106 11.7163 17.0692C11.7163 14.3277 13.9387 12.1053 16.6802 12.1053H46.1552V0.388947H16.6802Z" fill="white"/>
</svg>
