<svg width="65" height="65" viewBox="0 0 65 65" fill="none" xmlns="http://www.w3.org/2000/svg">
<circle cx="32.5" cy="32.5" r="31" stroke="#017E84" stroke-width="3"/>
<path d="M50.2734 22.8608C50.0916 22.423 49.7437 22.0751 49.3059 21.8933C49.0905 21.8015 48.8592 21.7528 48.6251 21.75H39.6667C39.1915 21.75 38.7358 21.9388 38.3998 22.2748C38.0638 22.6108 37.8751 23.0665 37.8751 23.5417C37.8751 24.0168 38.0638 24.4726 38.3998 24.8086C38.7358 25.1446 39.1915 25.3333 39.6667 25.3333H44.3071L34.2917 35.3488L28.3971 29.4363C28.2306 29.2683 28.0324 29.135 27.8141 29.0441C27.5958 28.9531 27.3616 28.9063 27.1251 28.9063C26.8885 28.9063 26.6544 28.9531 26.436 29.0441C26.2177 29.135 26.0195 29.2683 25.853 29.4363L15.103 40.1863C14.935 40.3528 14.8018 40.551 14.7108 40.7693C14.6198 40.9876 14.573 41.2218 14.573 41.4583C14.573 41.6949 14.6198 41.929 14.7108 42.1474C14.8018 42.3657 14.935 42.5639 15.103 42.7304C15.2695 42.8983 15.4677 43.0316 15.686 43.1226C15.9044 43.2136 16.1385 43.2604 16.3751 43.2604C16.6116 43.2604 16.8458 43.2136 17.0641 43.1226C17.2824 43.0316 17.4806 42.8983 17.6471 42.7304L27.1251 33.2346L33.0196 39.1471C33.1862 39.315 33.3844 39.4483 33.6027 39.5393C33.821 39.6302 34.0552 39.6771 34.2917 39.6771C34.5282 39.6771 34.7624 39.6302 34.9808 39.5393C35.1991 39.4483 35.3972 39.315 35.5638 39.1471L46.8334 27.8596V32.5C46.8334 32.9752 47.0222 33.4309 47.3582 33.7669C47.6942 34.1029 48.1499 34.2917 48.6251 34.2917C49.1002 34.2917 49.556 34.1029 49.892 33.7669C50.228 33.4309 50.4167 32.9752 50.4167 32.5V23.5417C50.4139 23.3075 50.3652 23.0762 50.2734 22.8608Z" fill="#017E84"/>
</svg>
