<svg width="65" height="65" viewBox="0 0 65 65" fill="none" xmlns="http://www.w3.org/2000/svg">
<circle cx="32.5" cy="32.5" r="31" stroke="#017E84" stroke-width="3"/>
<path d="M44.25 24.1371H39.2695V22.8951C39.2695 21.879 38.9082 21.0228 38.1855 20.3266C37.4629 19.6303 36.5742 19.2822 35.5195 19.2822H30.4805C29.4258 19.2822 28.5371 19.6303 27.8145 20.3266C27.0918 21.0228 26.7305 21.879 26.7305 22.8951V24.1371H21.75C20.6953 24.1371 19.8066 24.4758 19.084 25.1532C18.3613 25.8306 18 26.6962 18 27.75V32.5484C18 33.3387 18.4102 33.7338 19.2305 33.7338V43.3871C19.2305 44.0268 19.4844 44.5914 19.9922 45.0806C20.5 45.5699 21.0859 45.8145 21.75 45.8145H44.25C44.9141 45.8145 45.5 45.5699 46.0078 45.0806C46.5156 44.5914 46.7695 44.0268 46.7695 43.3871V33.7338C47.5898 33.7338 48 33.3387 48 32.5484V27.75C48 26.6962 47.6387 25.8306 46.916 25.1532C46.1934 24.4758 45.3047 24.1371 44.25 24.1371ZM29.25 22.8951C29.25 22.5564 29.3672 22.2742 29.6016 22.0484C29.8359 21.8225 30.1289 21.7096 30.4805 21.7096H35.5195C35.8711 21.7096 36.1641 21.8225 36.3984 22.0484C36.6328 22.2742 36.75 22.5564 36.75 22.8951V24.1371H29.25V22.8951ZM21.75 43.3871V33.7338H29.25V37.3467C29.25 38.0242 29.4941 38.5981 29.9824 39.0685C30.4707 39.5389 31.0664 39.7742 31.7695 39.7742H34.2305C34.9336 39.7742 35.5293 39.5389 36.0176 39.0685C36.5059 38.5981 36.75 38.0242 36.75 37.3467V33.7338H44.25V43.3871H21.75ZM31.7695 37.3467V33.7338H34.2305V37.3467H31.7695ZM45.4805 31.3629H20.5195V27.75C20.5195 26.922 20.9297 26.508 21.75 26.508H44.25C45.0703 26.508 45.4805 26.922 45.4805 27.75V31.3629Z" fill="#017E84"/>
</svg>
