<svg width="65" height="65" viewBox="0 0 65 65" fill="none" xmlns="http://www.w3.org/2000/svg">
<path d="M39.6514 43.7067L38.6275 35.5086C38.4824 34.3474 37.918 33.2792 37.0406 32.5049C36.1632 31.7306 35.0331 31.3035 33.8628 31.304H30.3366C29.1669 31.3043 28.0376 31.7317 27.1608 32.506C26.284 33.2802 25.7202 34.348 25.5751 35.5086L24.5496 43.7067C24.4933 44.1571 24.5335 44.6144 24.6674 45.048C24.8014 45.4817 25.0261 45.8819 25.3267 46.2221C25.6272 46.5623 25.9966 46.8346 26.4105 47.0211C26.8244 47.2075 27.2731 47.3037 27.727 47.3034H36.4755C36.9293 47.3035 37.3779 47.2071 37.7916 47.0206C38.2053 46.834 38.5745 46.5617 38.8749 46.2215C39.1752 45.8814 39.3998 45.4812 39.5337 45.0477C39.6676 44.6141 39.7077 44.157 39.6514 43.7067V43.7067Z" stroke="#017E84" stroke-width="3.26797" stroke-linecap="round" stroke-linejoin="round"/>
<path d="M32.1013 24.9041C34.7522 24.9041 36.9011 22.7552 36.9011 20.1043C36.9011 17.4534 34.7522 15.3044 32.1013 15.3044C29.4504 15.3044 27.3015 17.4534 27.3015 20.1043C27.3015 22.7552 29.4504 24.9041 32.1013 24.9041Z" stroke="#017E84" stroke-width="3.26797"/>
<path d="M19.3017 29.7039C21.069 29.7039 22.5016 28.2712 22.5016 26.504C22.5016 24.7367 21.069 23.3041 19.3017 23.3041C17.5345 23.3041 16.1018 24.7367 16.1018 26.504C16.1018 28.2712 17.5345 29.7039 19.3017 29.7039Z" stroke="#017E84" stroke-width="3.26797"/>
<path d="M44.9009 29.7039C46.6681 29.7039 48.1008 28.2712 48.1008 26.504C48.1008 24.7367 46.6681 23.3041 44.9009 23.3041C43.1336 23.3041 41.701 24.7367 41.701 26.504C41.701 28.2712 43.1336 29.7039 44.9009 29.7039Z" stroke="#017E84" stroke-width="3.26797"/>
<path d="M19.3017 34.5038H18.8122C18.0547 34.5037 17.3217 34.7723 16.7437 35.2619C16.1657 35.7514 15.7801 36.4301 15.6555 37.1773L15.1227 40.3772C15.0462 40.8356 15.0706 41.3053 15.194 41.7534C15.3174 42.2015 15.537 42.6173 15.8374 42.9719C16.1378 43.3266 16.5119 43.6115 16.9336 43.8069C17.3554 44.0023 17.8146 44.1035 18.2794 44.1035H24.1016M44.9009 34.5038H45.3905C46.1479 34.5037 46.8809 34.7723 47.4589 35.2619C48.0369 35.7514 48.4225 36.4301 48.5471 37.1773L49.0799 40.3772C49.1564 40.8356 49.132 41.3053 49.0086 41.7534C48.8852 42.2015 48.6656 42.6173 48.3652 42.9719C48.0648 43.3266 47.6907 43.6115 47.269 43.8069C46.8472 44.0023 46.388 44.1035 45.9232 44.1035H40.101" stroke="#017E84" stroke-width="3.26797" stroke-linecap="round" stroke-linejoin="round"/>
<circle cx="32.5" cy="32.5" r="31" stroke="#017E84" stroke-width="3"/>
</svg>
