<svg width="65" height="65" viewBox="0 0 65 65" fill="none" xmlns="http://www.w3.org/2000/svg">
<path d="M19.6243 26.9085H22.808V30.0922C22.808 30.1755 22.8913 30.2403 22.9931 30.2403H25.2143C25.3161 30.2403 25.3994 30.1755 25.3994 30.0876V26.9085H28.5831C28.6664 26.9085 28.7312 26.8252 28.7312 26.7234V24.5022C28.7312 24.4004 28.6664 24.3171 28.5785 24.3171H25.3994V21.1334C25.3994 21.0501 25.3161 20.9853 25.2143 20.9853H22.9931C22.8913 20.9853 22.808 21.0501 22.808 21.1334V24.3171H19.6243C19.541 24.3171 19.4762 24.4004 19.4762 24.5022V26.7234C19.4762 26.8252 19.541 26.9085 19.6243 26.9085ZM34.8025 26.9085H43.7613C43.8446 26.9085 43.9094 26.8252 43.9094 26.7234V24.5022C43.9094 24.4004 43.8446 24.3171 43.7567 24.3171H34.8025C34.7192 24.3171 34.6544 24.4004 34.6544 24.5022V26.7234C34.6544 26.8252 34.7192 26.9085 34.8025 26.9085ZM34.8025 39.1714H43.7613C43.8446 39.1714 43.9094 39.0881 43.9094 38.9863V36.7651C43.9094 36.6633 43.8446 36.58 43.7567 36.58H34.8025C34.7192 36.58 34.6544 36.6633 34.6544 36.7651V38.9863C34.6544 39.0881 34.7192 39.1714 34.8025 39.1714ZM34.8025 43.984H43.7613C43.8446 43.984 43.9094 43.9007 43.9094 43.7989V41.5777C43.9094 41.4759 43.8446 41.3926 43.7567 41.3926H34.8025C34.7192 41.3926 34.6544 41.4759 34.6544 41.5777V43.7989C34.6544 43.9007 34.7192 43.984 34.8025 43.984ZM25.7465 40.2357L28.5785 36.7697C28.7775 36.5291 28.6109 36.1635 28.3055 36.1635H25.9547C25.8483 36.1635 25.7465 36.2098 25.6817 36.2977L24.1083 38.2227L22.535 36.2977C22.5019 36.2569 22.4603 36.2238 22.4132 36.2006C22.3661 36.1775 22.3145 36.1648 22.262 36.1635H19.9066C19.6011 36.1635 19.4346 36.5291 19.6335 36.7697L22.4656 40.2357L19.5641 43.7896C19.3605 44.0302 19.5271 44.3958 19.8325 44.3958H22.1833C22.2897 44.3958 22.3915 44.3495 22.4563 44.2616L24.0991 42.2487L25.7418 44.2616C25.8113 44.3449 25.9131 44.3958 26.0149 44.3958H28.3656C28.6711 44.3958 28.8376 44.0302 28.6387 43.7896L25.7465 40.2357ZM48.722 14.1829H14.6636C13.8445 14.1829 13.1828 14.8446 13.1828 15.6637V49.7221C13.1828 50.5411 13.8445 51.2029 14.6636 51.2029H48.722C49.5411 51.2029 50.2028 50.5411 50.2028 49.7221V15.6637C50.2028 14.8446 49.5411 14.1829 48.722 14.1829ZM47.0561 48.0562H16.3295V17.3296H47.0561V48.0562Z" fill="#017E84"/>
<circle cx="32.5" cy="32.5" r="31" stroke="#017E84" stroke-width="3"/>
</svg>
