<svg width="65" height="65" viewBox="0 0 65 65" fill="none" xmlns="http://www.w3.org/2000/svg">
<circle cx="32.5" cy="32.5" r="31" stroke="#017E84" stroke-width="3"/>
<path d="M21.3333 49.6666C20.4167 49.6666 19.6317 49.3405 18.9783 48.6883C18.3261 48.035 18 47.25 18 46.3333V23C18 22.0833 18.3261 21.2989 18.9783 20.6466C19.6317 19.9933 20.4167 19.6666 21.3333 19.6666H23V16.3333H26.3333V19.6666H39.6667V16.3333H43V19.6666H44.6667C45.5833 19.6666 46.3683 19.9933 47.0217 20.6466C47.6739 21.2989 48 22.0833 48 23V46.3333C48 47.25 47.6739 48.035 47.0217 48.6883C46.3683 49.3405 45.5833 49.6666 44.6667 49.6666H21.3333ZM21.3333 46.3333H44.6667V29.6666H21.3333V46.3333ZM21.3333 26.3333H44.6667V23H21.3333V26.3333ZM21.3333 26.3333V23V26.3333ZM33 36.3333C32.5278 36.3333 32.1322 36.1733 31.8133 35.8533C31.4933 35.5344 31.3333 35.1389 31.3333 34.6666C31.3333 34.1944 31.4933 33.7983 31.8133 33.4783C32.1322 33.1594 32.5278 33 33 33C33.4722 33 33.8683 33.1594 34.1883 33.4783C34.5072 33.7983 34.6667 34.1944 34.6667 34.6666C34.6667 35.1389 34.5072 35.5344 34.1883 35.8533C33.8683 36.1733 33.4722 36.3333 33 36.3333ZM26.3333 36.3333C25.8611 36.3333 25.465 36.1733 25.145 35.8533C24.8261 35.5344 24.6667 35.1389 24.6667 34.6666C24.6667 34.1944 24.8261 33.7983 25.145 33.4783C25.465 33.1594 25.8611 33 26.3333 33C26.8056 33 27.2017 33.1594 27.5217 33.4783C27.8406 33.7983 28 34.1944 28 34.6666C28 35.1389 27.8406 35.5344 27.5217 35.8533C27.2017 36.1733 26.8056 36.3333 26.3333 36.3333ZM39.6667 36.3333C39.1944 36.3333 38.7989 36.1733 38.48 35.8533C38.16 35.5344 38 35.1389 38 34.6666C38 34.1944 38.16 33.7983 38.48 33.4783C38.7989 33.1594 39.1944 33 39.6667 33C40.1389 33 40.5344 33.1594 40.8533 33.4783C41.1733 33.7983 41.3333 34.1944 41.3333 34.6666C41.3333 35.1389 41.1733 35.5344 40.8533 35.8533C40.5344 36.1733 40.1389 36.3333 39.6667 36.3333ZM33 43C32.5278 43 32.1322 42.84 31.8133 42.52C31.4933 42.2011 31.3333 41.8055 31.3333 41.3333C31.3333 40.8611 31.4933 40.4655 31.8133 40.1466C32.1322 39.8266 32.5278 39.6666 33 39.6666C33.4722 39.6666 33.8683 39.8266 34.1883 40.1466C34.5072 40.4655 34.6667 40.8611 34.6667 41.3333C34.6667 41.8055 34.5072 42.2011 34.1883 42.52C33.8683 42.84 33.4722 43 33 43ZM26.3333 43C25.8611 43 25.465 42.84 25.145 42.52C24.8261 42.2011 24.6667 41.8055 24.6667 41.3333C24.6667 40.8611 24.8261 40.4655 25.145 40.1466C25.465 39.8266 25.8611 39.6666 26.3333 39.6666C26.8056 39.6666 27.2017 39.8266 27.5217 40.1466C27.8406 40.4655 28 40.8611 28 41.3333C28 41.8055 27.8406 42.2011 27.5217 42.52C27.2017 42.84 26.8056 43 26.3333 43ZM39.6667 43C39.1944 43 38.7989 42.84 38.48 42.52C38.16 42.2011 38 41.8055 38 41.3333C38 40.8611 38.16 40.4655 38.48 40.1466C38.7989 39.8266 39.1944 39.6666 39.6667 39.6666C40.1389 39.6666 40.5344 39.8266 40.8533 40.1466C41.1733 40.4655 41.3333 40.8611 41.3333 41.3333C41.3333 41.8055 41.1733 42.2011 40.8533 42.52C40.5344 42.84 40.1389 43 39.6667 43Z" fill="#017E84"/>
</svg>
