<svg width="65" height="65" viewBox="0 0 65 65" fill="none" xmlns="http://www.w3.org/2000/svg">
<g clip-path="url(#clip0_17_26)">
<path d="M46.4712 18.9326C46.0674 18.6713 45.6056 18.5133 45.1264 18.4723C44.6472 18.4314 44.1653 18.5088 43.7231 18.6977L29.2306 24.4054C28.8875 24.545 28.5206 24.6168 28.1501 24.6168H18.8722C18.0935 24.6168 17.3467 24.9261 16.796 25.4768C16.2454 26.0274 15.9361 26.7742 15.9361 27.5529V27.7878H13V34.8343H15.9361V35.1397C15.9545 35.9061 16.2719 36.6349 16.8206 37.1704C17.3692 37.7059 18.1055 38.0055 18.8722 38.0053L22.3954 45.4746C22.634 45.9776 23.0096 46.4031 23.4791 46.7023C23.9486 47.0014 24.493 47.1621 25.0496 47.1658H26.5294C27.304 47.1596 28.0448 46.8476 28.5904 46.2976C29.1359 45.7477 29.442 45.0044 29.442 44.2298V38.2871L43.7231 43.9949C44.0743 44.1347 44.449 44.2064 44.827 44.2063C45.4136 44.1968 45.9847 44.0173 46.4712 43.6895C46.8575 43.4287 47.1762 43.0796 47.4009 42.6711C47.6255 42.2627 47.7497 41.8066 47.7631 41.3407V21.3519C47.7609 20.8739 47.6421 20.4037 47.417 19.9821C47.1919 19.5605 46.8672 19.2002 46.4712 18.9326ZM26.5059 27.5529V35.1397H18.8722V27.5529H26.5059ZM26.5059 44.2298H25.0262L22.1371 38.0053H26.5059V44.2298ZM30.3111 35.492C30.0322 35.3495 29.7414 35.2316 29.442 35.1397V27.3885C29.7385 27.3273 30.0293 27.2408 30.3111 27.1301L44.827 21.3519V41.2702L30.3111 35.492ZM47.8336 28.375V34.2471C48.6122 34.2471 49.359 33.9378 49.9097 33.3872C50.4603 32.8365 50.7696 32.0897 50.7696 31.311C50.7696 30.5323 50.4603 29.7855 49.9097 29.2349C49.359 28.6843 48.6122 28.375 47.8336 28.375Z" fill="#017E84"/>
</g>
<circle cx="32.5" cy="32.5" r="31" stroke="#017E84" stroke-width="3"/>
<defs>
<clipPath id="clip0_17_26">
<rect width="37.5817" height="37.5817" fill="white" transform="translate(13 14)"/>
</clipPath>
</defs>
</svg>
