<svg width="65" height="65" viewBox="0 0 65 65" fill="none" xmlns="http://www.w3.org/2000/svg">
<circle cx="32.5" cy="32.5" r="31" stroke="#017E84" stroke-width="3"/>
<path d="M33.6343 15.8312C33.4399 15.8308 33.2478 15.8741 33.0724 15.9578C32.8969 16.0415 32.7424 16.1635 32.6203 16.3148L32.3889 16.4864C27.9039 15.098 22.7871 16.1172 19.2251 19.5492C17.7334 20.9646 16.6238 22.7341 15.9992 24.6932C15.3747 26.6524 15.2555 28.7376 15.6527 30.7552C15.6085 30.7941 15.5652 30.834 15.5227 30.8748L13.4973 32.8248C13.1055 33.1965 12.7935 33.644 12.5803 34.1402C12.367 34.6363 12.2571 35.1707 12.2571 35.7108C12.2571 36.2508 12.367 36.7852 12.5803 37.2814C12.7935 37.7775 13.1055 38.2251 13.4973 38.5968C14.5321 39.5952 15.9673 39.9696 17.3011 39.72C17.4649 40.4714 17.8471 41.1864 18.4529 41.7688C19.2511 42.5384 20.2885 42.9362 21.3337 42.9648C21.3623 43.971 21.7757 44.9694 22.5739 45.739C23.3721 46.5086 24.4121 46.909 25.4573 46.935C25.4833 47.9412 25.8993 48.9422 26.6975 49.7118C27.4617 50.437 28.4627 50.8608 29.5152 50.9048C30.5678 50.9487 31.6007 50.6099 32.4227 49.951L33.5589 51.043C35.2229 52.6472 37.9217 52.6472 39.5857 51.043C40.3813 50.2786 40.7947 49.2854 40.8311 48.2818C41.8998 48.2542 42.9198 47.8286 43.6911 47.0884C44.4867 46.3214 44.9001 45.3282 44.9313 44.3246C45.988 44.2875 46.994 43.8627 47.7575 43.1312C48.3893 42.5254 48.7793 41.774 48.9301 40.9888C49.5993 41.1061 50.2868 41.0647 50.9371 40.8678C51.5874 40.6709 52.1823 40.3241 52.6741 39.8552C53.0663 39.4835 53.3787 39.0358 53.5921 38.5393C53.8056 38.0429 53.9157 37.5082 53.9157 36.9679C53.9157 36.4275 53.8056 35.8928 53.5921 35.3964C53.3787 34.9 53.0663 34.4523 52.6741 34.0806L50.8021 32.2788L51.1843 30.8488C51.9574 27.9253 51.5659 24.8158 50.0923 22.1752C47.9187 18.2596 43.7015 15.8416 39.1411 15.8416H35.9431C35.8054 15.8348 35.6676 15.8313 35.5297 15.8312H33.6343ZM40.0121 25.4928L46.2651 31.517L46.2729 31.5222L50.7995 35.885C50.9465 36.0244 51.0636 36.1924 51.1437 36.3785C51.2237 36.5647 51.265 36.7652 51.265 36.9679C51.265 37.1705 51.2237 37.3711 51.1437 37.5572C51.0636 37.7434 50.9465 37.9113 50.7995 38.0508C50.4957 38.3384 50.0933 38.4987 49.675 38.4987C49.2567 38.4987 48.8542 38.3384 48.5505 38.0508L45.1159 34.7436C44.8641 34.502 44.5288 34.3672 44.1799 34.3672C43.831 34.3672 43.4956 34.502 43.2439 34.7436L43.2075 34.7748C43.0849 34.8909 42.9873 35.0308 42.9206 35.1859C42.8538 35.341 42.8194 35.5081 42.8194 35.677C42.8194 35.8458 42.8538 36.0129 42.9206 36.168C42.9873 36.3232 43.0849 36.463 43.2075 36.5792L45.8855 39.1584C46.5095 39.7564 46.5095 40.7288 45.8855 41.3294C45.6093 41.5911 45.2507 41.7484 44.8712 41.7745C44.4916 41.8006 44.1149 41.6938 43.8055 41.4724C43.5473 41.2858 43.2319 41.1957 42.9142 41.2175C42.5964 41.2394 42.2963 41.3719 42.0661 41.592C41.8411 41.8071 41.7052 42.099 41.6855 42.4097C41.6657 42.7203 41.7635 43.0271 41.9595 43.269C42.1929 43.5613 42.308 43.9307 42.282 44.3038C42.256 44.677 42.0908 45.0268 41.8191 45.284C41.539 45.5496 41.1742 45.7077 40.7889 45.7306C40.4036 45.7534 40.0226 45.6394 39.7131 45.4088C39.4562 45.2161 39.1395 45.1203 38.8189 45.1384C38.4982 45.1565 38.1943 45.2872 37.9607 45.5076C37.7328 45.7224 37.5945 46.0155 37.5738 46.328C37.5531 46.6405 37.6513 46.9493 37.8489 47.1924C38.0878 47.4886 38.2062 47.864 38.1807 48.2437C38.1552 48.6234 37.9875 48.9796 37.7111 49.2412C37.4033 49.5332 36.9953 49.6961 36.571 49.6961C36.1467 49.6961 35.7386 49.5332 35.4309 49.2412L34.3051 48.157L34.7159 47.7618C35.1081 47.3901 35.4205 46.9424 35.6339 46.4459C35.8474 45.9495 35.9575 45.4148 35.9575 44.8745C35.9575 44.3341 35.8474 43.7994 35.6339 43.303C35.4205 42.8066 35.1081 42.3589 34.7159 41.9872C33.9389 41.2425 32.9111 40.8158 31.8351 40.7912C31.8035 39.7384 31.3579 38.7405 30.5949 38.0144C29.8168 37.27 28.788 36.8442 27.7115 36.821C27.6799 35.7682 27.2343 34.7703 26.4713 34.0442C25.9718 33.5688 25.3663 33.2192 24.7048 33.0243C24.0433 32.8294 23.345 32.7949 22.6675 32.9236C22.4961 32.1412 22.095 31.4278 21.5157 30.8748C21.0716 30.451 20.5423 30.1265 19.9632 29.923C19.384 29.7195 18.7681 29.6415 18.1565 29.6944C17.9517 28.1708 18.1112 26.6204 18.6219 25.1705C19.1326 23.7205 19.98 22.4124 21.0945 21.3536C22.2207 20.2777 23.5709 19.4642 25.0484 18.9716C26.526 18.4789 28.0942 18.3192 29.6407 18.504L25.8577 21.286C25.3737 21.6377 24.9659 22.0838 24.6591 22.5975C24.3523 23.1112 24.1528 23.6817 24.0726 24.2746C23.9924 24.8675 24.0332 25.4705 24.1926 26.0472C24.3519 26.6239 24.6265 27.1623 24.9997 27.63C25.7545 28.5764 26.8451 29.1953 28.0446 29.358C29.2442 29.5208 30.4603 29.2147 31.4399 28.5036L35.5375 25.4954H40.0095L40.0121 25.4928ZM27.3969 23.379L34.1361 18.4312H35.5297C35.6572 18.4305 35.7846 18.434 35.9119 18.4416H39.1411C42.7915 18.4416 46.1221 20.3786 47.8199 23.4388C48.9691 25.5084 49.2707 27.9134 48.6701 30.1832L48.6623 30.2092L41.4863 23.275C41.2431 23.031 40.913 22.8935 40.5685 22.8928H35.1085C34.8325 22.8933 34.5639 22.9816 34.3415 23.145L29.9007 26.4054C29.4645 26.7177 28.9254 26.8516 28.3938 26.7796C27.8621 26.7076 27.3781 26.4351 27.0407 26.018C26.8835 25.8243 26.7675 25.6005 26.7001 25.3603C26.6326 25.1201 26.615 24.8687 26.6484 24.6215C26.6818 24.3743 26.7654 24.1365 26.8941 23.9228C27.0228 23.7091 27.1939 23.524 27.3969 23.379ZM28.5461 45.765L28.5721 45.739L30.5949 43.789L30.6183 43.7682C30.9237 43.4905 31.3229 43.3385 31.7357 43.3429C32.1485 43.3472 32.5444 43.5075 32.8439 43.7916C32.9909 43.931 33.108 44.0989 33.1881 44.2851C33.2681 44.4713 33.3094 44.6718 33.3094 44.8745C33.3094 45.0771 33.2681 45.2777 33.1881 45.4638C33.108 45.65 32.9909 45.8179 32.8439 45.9574L30.8185 47.9074C30.5147 48.195 30.1123 48.3553 29.694 48.3553C29.2757 48.3553 28.8732 48.195 28.5695 47.9074C28.4244 47.77 28.3083 47.6049 28.2282 47.4218C28.1481 47.2388 28.1056 47.0415 28.1032 46.8417C28.1007 46.6419 28.1385 46.4436 28.2141 46.2587C28.2897 46.0737 28.4018 45.9058 28.5435 45.765H28.5461ZM28.7463 41.9638L28.7203 41.9872L26.6975 43.9372L26.6715 43.9606C26.3659 44.2372 25.9671 44.3882 25.5549 44.3834C25.1427 44.3786 24.7475 44.2183 24.4485 43.9346C24.3031 43.7966 24.187 43.6308 24.1071 43.4469C24.0272 43.2631 23.9851 43.0651 23.9834 42.8646C23.9817 42.6642 24.0204 42.4655 24.0972 42.2803C24.174 42.0952 24.2872 41.9274 24.4303 41.787L24.4485 41.7688L26.4713 39.8188L26.4895 39.8006C26.7946 39.5207 27.1945 39.3669 27.6085 39.3703C28.0225 39.3736 28.4198 39.5339 28.7203 39.8188C28.8658 39.9562 28.9822 40.1215 29.0625 40.3048C29.1429 40.4881 29.1855 40.6856 29.188 40.8858C29.1904 41.0859 29.1525 41.2845 29.0767 41.4696C29.0008 41.6548 28.8884 41.8229 28.7463 41.9638ZM24.5993 38.0144L22.5739 39.9644L22.5557 39.9826C22.2506 40.2625 21.8507 40.4163 21.4367 40.4129C21.0227 40.4095 20.6254 40.2492 20.3249 39.9644C20.1778 39.8249 20.0607 39.657 19.9807 39.4708C19.9007 39.2846 19.8594 39.0841 19.8594 38.8815C19.8594 38.6788 19.9007 38.4783 19.9807 38.2921C20.0607 38.1059 20.1778 37.938 20.3249 37.7986L22.3477 35.8486C22.6516 35.5602 23.0545 35.3994 23.4735 35.3994C23.8924 35.3994 24.2954 35.5602 24.5993 35.8486C24.7451 35.9866 24.8615 36.1526 24.9417 36.3367C25.0218 36.5207 25.064 36.7191 25.0657 36.9198C25.0674 37.1206 25.0286 37.3196 24.9516 37.505C24.8746 37.6904 24.7609 37.8583 24.6175 37.9988L24.5993 38.0144ZM19.6437 34.845L17.6209 36.795C17.3173 37.084 16.9142 37.2451 16.4951 37.2451C16.076 37.2451 15.6729 37.084 15.3693 36.795C15.2218 36.6555 15.1044 36.4874 15.0241 36.301C14.9438 36.1146 14.9024 35.9137 14.9024 35.7108C14.9024 35.5078 14.9438 35.307 15.0241 35.1206C15.1044 34.9341 15.2218 34.7661 15.3693 34.6266L17.3947 32.6766C17.6984 32.3889 18.1009 32.2286 18.5192 32.2286C18.9375 32.2286 19.3399 32.3889 19.6437 32.6766C19.7911 32.8161 19.9086 32.9841 19.9889 33.1706C20.0691 33.357 20.1105 33.5578 20.1105 33.7608C20.1105 33.9637 20.0691 34.1646 19.9889 34.351C19.9086 34.5374 19.7911 34.7055 19.6437 34.845Z" fill="#017E84"/>
</svg>
